<?xml version="1.0" encoding="UTF-8" standalone="no"?>
<!-- Created with Inkscape (http://www.inkscape.org/) -->

<svg
   width="210mm"
   height="297mm"
   viewBox="0 0 210 297"
   version="1.1"
   id="svg1"
   inkscape:version="1.3.2 (091e20ef0f, 2023-11-25, custom)"
   sodipodi:docname="logo.svg"
   xmlns:inkscape="http://www.inkscape.org/namespaces/inkscape"
   xmlns:sodipodi="http://sodipodi.sourceforge.net/DTD/sodipodi-0.dtd"
   xmlns="http://www.w3.org/2000/svg"
   xmlns:svg="http://www.w3.org/2000/svg">
  <sodipodi:namedview
     id="namedview1"
     pagecolor="#ffffff"
     bordercolor="#666666"
     borderopacity="1.0"
     inkscape:showpageshadow="2"
     inkscape:pageopacity="0.0"
     inkscape:pagecheckerboard="0"
     inkscape:deskcolor="#d1d1d1"
     inkscape:document-units="mm"
     inkscape:zoom="1.0015858"
     inkscape:cx="194.69126"
     inkscape:cy="300.02422"
     inkscape:window-width="1920"
     inkscape:window-height="1043"
     inkscape:window-x="0"
     inkscape:window-y="0"
     inkscape:window-maximized="1"
     inkscape:current-layer="layer1" />
  <defs
     id="defs1" />
  <g
     inkscape:label="Layer 1"
     inkscape:groupmode="layer"
     id="layer1">
    <path
       id="text4"
       style="font-style:normal;font-weight:normal;font-size:10.5833px;font-family:sans-serif;fill:#000000;fill-opacity:1;stroke:none;stroke-width:0.264583"
       d="m 69.826172,85.521484 c -1.420613,3.083315 -2.840871,6.166794 -4.261719,9.25 0.860677,0 1.721354,0 2.582031,0 0.325484,-0.418317 0.281218,-1.409715 0.970313,-1.265625 0.952604,0 1.905208,0 2.857812,0 0.321551,0.393515 0.274062,1.357697 0.910157,1.265625 0.747395,0 1.494791,0 2.242187,0 -1.468485,-3.18602 -2.935488,-6.372723 -4.404297,-9.558593 -0.339224,0.06161 -0.838895,-0.197421 -0.896484,0.308593 z M 31.912109,85.244141 c -1.61253,0.03835 -3.148661,1.485803 -2.892578,3.160156 0.160265,1.534989 1.764373,2.16505 2.996879,2.691021 0.395368,0.233949 1.182488,0.455963 1.073434,1.025776 -0.771472,0.803256 -2.263536,0.382532 -2.668611,-0.62445 -0.348318,-0.406636 -0.944726,0.544982 -1.395019,0.696068 -0.653563,0.239319 -0.60189,0.665903 -0.204069,1.137182 1.333636,2.058741 4.839554,2.143863 6.244261,0.12909 0.84676,-1.248056 0.405738,-3.094606 -0.916363,-3.823272 -0.833119,-0.649212 -1.98759,-0.778776 -2.765277,-1.47165 0.155693,-0.888275 1.647793,-0.707218 1.859366,0.102899 0.230576,0.859363 0.903327,-0.19461 1.372654,-0.364838 0.679739,-0.259027 0.738721,-0.685106 0.320714,-1.241967 -0.605004,-1.053376 -1.856341,-1.510319 -3.025391,-1.416015 z m 95.621091,0 c -1.60865,0.03903 -3.14852,1.481778 -2.89062,3.154297 0.146,1.498081 1.69311,2.147886 2.90357,2.656199 0.42094,0.244637 1.27173,0.463539 1.16479,1.06841 -0.77421,0.798884 -2.26325,0.382826 -2.66666,-0.626403 -0.34832,-0.406636 -0.94473,0.544982 -1.39502,0.696068 -0.65053,0.239215 -0.60405,0.662569 -0.20671,1.13372 1.33528,2.071111 4.87402,2.149787 6.26253,0.105209 0.82591,-1.24786 0.37743,-3.073449 -0.93382,-3.796117 -0.83281,-0.649754 -1.98712,-0.779021 -2.76345,-1.473415 0.15476,-0.886423 1.64668,-0.705255 1.85756,0.104772 0.23129,0.85643 0.90447,-0.194749 1.37294,-0.36414 0.68134,-0.259615 0.74477,-0.68871 0.31833,-1.244538 -0.60183,-1.055378 -1.85703,-1.506818 -3.02344,-1.414062 z m -8.29101,0.01758 c -2.62994,0.194775 -4.73341,2.832765 -4.32293,5.44067 0.26992,2.633292 3.00467,4.654755 5.6018,4.130493 2.59505,-0.373583 4.51631,-3.124117 3.93402,-5.690304 -0.44003,-2.377455 -2.80202,-4.155866 -5.21289,-3.880859 z m -41.353518,0.0039 c -2.626982,0.198455 -4.730333,2.832423 -4.320971,5.438717 0.264179,2.602396 2.932958,4.590776 5.501595,4.155619 2.141743,-0.211076 3.837177,-2.202476 3.816006,-4.335406 0.02651,-0.454099 -0.04291,-0.906153 -0.07085,-1.358539 -1.653646,0 -3.307292,0 -4.960937,0 0,0.752604 0,1.505208 0,2.257812 0.832031,0 1.664062,0 2.496093,0 -0.682732,1.574536 -3.148851,1.378996 -4.004362,0.05602 -1.042579,-1.383895 -0.09102,-3.605564 1.62071,-3.825563 1.106186,-0.202584 2.056611,0.554334 2.793809,1.279311 0.441916,-0.658949 0.883728,-1.317968 1.326172,-1.976563 -1.093214,-1.097496 -2.619616,-1.851105 -4.197266,-1.691406 z m -42.404297,0.646484 c 0.05038,1.993683 -0.101401,4.000672 0.07617,5.986329 0.29676,1.922234 2.283404,3.357593 4.201773,2.976725 1.927625,-0.24972 3.252041,-2.209179 3.08143,-4.089225 0,-1.801042 0,-3.602084 0,-5.403126 -0.792318,0 -1.584635,10e-7 -2.376953,0 -0.04085,2.052913 0.08255,4.120044 -0.0625,6.164063 -0.201787,1.067707 -1.786935,1.36931 -2.314453,0.394531 -0.467587,-0.983793 -0.133148,-2.132388 -0.234375,-3.184765 0,-1.12461 0,-2.249219 0,-3.373829 -0.790365,0 -1.580729,0 -2.371094,0 0,0.176433 0,0.352865 0,0.529297 z m 7.820313,0 c 0,2.953125 0,5.90625 0,8.859375 0.788411,0 1.576822,0 2.365234,0 0,-0.96289 0,-1.925781 0,-2.888672 1.398834,0.131847 2.975275,-0.200441 3.818359,-1.425781 0.30632,-0.427903 0.508007,-0.929913 0.570313,-1.453125 0,1.922526 0,3.845052 0,5.767578 2.00651,0 4.013021,0 6.019531,0 0,-0.787109 0,-1.574218 0,-2.361328 -1.218099,0 -2.436198,0 -3.654297,0 0.06871,-0.546653 -0.30109,-1.531819 0.6,-1.246094 0.850781,10e-7 1.701563,0 2.552344,0 0,-0.786458 0,-1.572916 0,-2.359374 -1.050781,0 -2.101563,0 -3.152344,0 -0.07326,-0.698648 -0.08555,-1.336329 0.8,-1.076172 0.951432,0 1.902865,0 2.854297,0 0,-0.781901 0,-1.563802 0,-2.345704 -2.00651,0 -4.013021,10e-7 -6.019531,0 -0.0025,0.959374 0.0052,2.012521 -0.0039,2.91211 -0.187574,-1.831605 -2.061688,-3.10273 -3.835547,-2.91211 -0.971485,0 -1.942969,10e-7 -2.914453,0 -10e-7,0.176433 0,0.352865 0,0.529297 z m 13.072265,0 c 0.0018,2.953125 0.0046,5.90625 0.0059,8.859375 0.788412,0 1.576823,0 2.365235,0 0,-1.074869 0,-2.149739 0,-3.224609 0.56008,0.08837 0.727755,0.927801 1.132553,1.313379 0.442555,0.637243 0.887362,1.272925 1.328384,1.91123 0.973959,0 1.947917,0 2.921875,0 -0.88941,-1.221467 -1.777343,-2.44401 -2.666015,-3.666015 1.682593,-0.976642 1.824669,-3.569925 0.36914,-4.810547 -1.090002,-1.103648 -2.728669,-0.920035 -4.13789,-0.91211 -0.487033,0.119348 -1.566124,-0.353363 -1.319141,0.5 z m 26.660156,0 c 0,2.953125 0,5.90625 0,8.859375 0.789063,0 1.578125,0 2.367188,0 0,-3.129557 0,-6.259114 0,-9.388672 -0.789063,0 -1.578125,10e-7 -2.367188,0 0,0.176433 0,0.352865 0,0.529297 z m 2.910157,0 c 0,2.953125 0,5.90625 0,8.859375 4.028645,0 8.057291,0 12.085937,0 0,-0.787109 0,-1.574218 0,-2.361328 -1.218099,0 -2.436198,0 -3.654297,0 0.06871,-0.546653 -0.301089,-1.531819 0.6,-1.246094 0.850781,0 1.701563,10e-7 2.552344,0 0,-0.786458 0,-1.572916 0,-2.359374 -1.050781,0 -2.101563,0 -3.152344,0 -0.07326,-0.698648 -0.08555,-1.336329 0.8,-1.076172 0.951433,0 1.902865,0 2.854297,0 0,-0.781901 0,-1.563802 0,-2.345704 -2.00651,10e-7 -4.013021,0 -6.019531,0 0,2.342448 0,4.684896 0,7.027344 -1.233724,0 -2.467448,0 -3.701172,0 0,-2.342448 0,-4.684896 0,-7.027344 -0.788411,0 -1.576823,10e-7 -2.365234,0 0,0.176433 0,0.352865 0,0.529297 z m 15.486324,0 c 0,2.953125 0,5.90625 0,8.859375 1.48454,-0.06026 2.99101,0.124879 4.46213,-0.09702 1.24526,-0.267975 2.21547,-1.409176 2.31717,-2.672513 6.1e-4,0.923177 0.002,1.846354 0.002,2.769531 0.78842,0 1.57683,0 2.36524,0 0,-1.074869 0,-2.149739 0,-3.224609 0.56004,0.0884 0.72735,0.928085 1.13197,1.31378 0.44213,0.637092 0.88626,1.272788 1.32701,1.910829 0.97461,0 1.94922,0 2.92383,0 -0.88941,-1.221467 -1.77734,-2.44401 -2.66601,-3.666015 1.67927,-0.978577 1.82543,-3.569524 0.36914,-4.810547 -1.09009,-1.103325 -2.72865,-0.920183 -4.13789,-0.91211 -0.48704,0.119348 -1.56613,-0.353363 -1.31915,0.5 -4e-5,1.824796 0.005,3.722971 0.002,5.501954 -0.0938,-0.864144 -0.62739,-1.668169 -1.39844,-2.074219 0.95109,-1.425786 -0.0798,-3.441022 -1.67578,-3.804688 -1.21271,-0.260345 -2.47182,-0.06059 -3.70313,-0.123047 0,0.176433 0,0.352865 0,0.529297 z m 18.52539,1.716797 c 1.71253,0.109582 2.8057,2.243716 1.86357,3.686702 -0.81881,1.524884 -3.23493,1.607964 -4.14677,0.131658 -1.02295,-1.378302 -0.0787,-3.584237 1.62417,-3.794854 0.21694,-0.04225 0.43954,-0.03721 0.65903,-0.02351 z m -15.66992,0.08398 c 0.64447,-0.09043 0.83146,0.930344 0.15625,1.001953 -0.78556,0.261273 -0.68096,-0.42428 -0.65039,-1.001953 0.16472,0 0.32943,0 0.49414,0 z m -57.69531,0.02539 c 0.78728,-0.102871 1.541839,0.941764 0.818359,1.515625 -0.48534,0.415565 -1.161072,0.241408 -1.742187,0.275391 0.0662,-0.564135 -0.132777,-1.393454 0.1,-1.791016 0.274609,0 0.549219,0 0.823828,0 z m 12.902344,0 c 0.835579,-0.101606 1.31353,1.091499 0.537109,1.515625 -0.386094,0.145872 -1.469546,0.44188 -1.289062,-0.249609 0.0714,-0.550606 -0.304233,-1.548243 0.6,-1.266016 h 0.1 z m 51.830076,0 c 0.83504,-0.101314 1.31717,1.090115 0.53906,1.515625 -0.38678,0.146663 -1.47069,0.441284 -1.29101,-0.249609 0.0714,-0.550606 -0.30423,-1.548243 0.6,-1.266016 h 0.1 z m -40.333982,3.587891 c -0.524739,-0.06863 -1.697999,0.281644 -1.046256,-0.54693 0.257578,-0.847518 0.514387,-1.014522 0.769939,-0.06934 0.0921,0.205423 0.184211,0.410846 0.276317,0.61627 z m 34.193362,-0.369141 c 0.72976,0.0063 0.96977,1.026735 0.29883,1.335938 -0.52212,0.260921 -1.129,0.09946 -1.68946,0.144531 0.14843,-0.48411 -0.36383,-1.626644 0.4,-1.497473 0.33024,0.0047 0.66154,-0.01841 0.99063,0.017 z" />
    <text
       xml:space="preserve"
       style="font-style:normal;font-weight:normal;font-size:10.5833px;font-family:sans-serif;fill:#ff0000;fill-opacity:1;stroke:none;stroke-width:0.264583"
       x="28.795221"
       y="94.24263"
       id="text1"><tspan
         sodipodi:role="line"
         id="tspan1"
         style="font-style:normal;font-variant:normal;font-weight:normal;font-stretch:normal;font-family:'LEMON MILK';-inkscape-font-specification:'LEMON MILK';stroke-width:0.264583;fill:#ff0000"
         x="28.795221"
         y="94.24263">SUPER AGILE BROS</tspan></text>
    <path
       id="text5"
       style="font-style:normal;font-weight:normal;font-size:10.5833px;font-family:sans-serif;fill:#f9f9f9;fill-opacity:1;stroke:none;stroke-width:0.264583"
       d="m 31.972656,86.302734 c -1.173512,-0.0047 -2.318627,1.207165 -1.787109,2.375 0.907809,1.399548 3.106888,1.232484 3.889036,2.770725 0.490023,1.083178 -0.650803,2.103098 -1.687864,2.121853 -0.84916,0.106212 -1.762315,-0.160282 -2.34961,-0.798828 -0.457676,0.205184 0.2284,0.54361 0.44336,0.707032 1.242415,0.676112 3.244036,0.502809 3.863281,-0.929688 0.419343,-1.032888 -0.410399,-1.990115 -1.325651,-2.353317 -0.901752,-0.550777 -2.358414,-0.666033 -2.678255,-1.847855 -0.223871,-1.43778 1.62009,-2.229582 2.767578,-1.648437 0.268751,0.07841 0.984715,0.789615 0.687834,0.198095 -0.454294,-0.496845 -1.176034,-0.640741 -1.8226,-0.59458 z m 95.621094,0 c -1.17296,-0.0023 -2.32262,1.208446 -1.78516,2.378907 0.91066,1.395057 3.10624,1.229736 3.88709,2.766818 0.49256,1.083315 -0.65096,2.103445 -1.68787,2.121853 -0.84794,0.105402 -1.76223,-0.158762 -2.34765,-0.798828 -0.46856,0.212814 0.2527,0.553354 0.46484,0.720704 1.24134,0.658073 3.22743,0.481854 3.83984,-0.94336 0.41203,-1.018865 -0.3943,-1.982653 -1.30646,-2.340944 -0.91113,-0.565724 -2.40945,-0.678244 -2.70721,-1.897337 -0.17259,-1.466195 1.73245,-2.217021 2.87069,-1.564654 0.26497,0.186741 0.99098,0.680747 0.52836,0.0859 -0.45924,-0.446086 -1.13712,-0.573088 -1.75647,-0.529061 z m -8.27539,0.01563 c -2.32035,0.172773 -4.00137,2.781206 -3.18409,4.96294 0.65122,2.136043 3.36781,3.232746 5.31595,2.135913 1.99958,-0.961615 2.68575,-3.78866 1.31613,-5.546175 -0.76707,-1.084522 -2.12724,-1.695568 -3.44799,-1.552678 z m -41.351563,0.0039 C 75.678463,86.49912 74.010279,89.02961 74.75,91.203125 c 0.643989,2.294698 3.678199,3.425037 5.641961,2.057167 0.995859,-0.651354 1.488286,-1.872533 1.438117,-3.035683 -0.972656,0 -1.945312,0 -2.917969,0 0.284425,0.329117 1.180795,0.04629 1.7,0.140625 0.511053,-0.02403 1.109842,-0.129257 0.878125,0.585938 0.03667,1.632012 -1.633332,2.770964 -3.15848,2.637821 -2.00514,0.02363 -3.750964,-1.898296 -3.456754,-3.89954 0.170908,-2.193605 2.729981,-3.805673 4.755841,-2.853041 0.341194,0.04767 0.72477,0.529945 0.970096,0.432311 -0.0042,-0.450058 -0.941136,-0.663961 -1.389593,-0.838925 -0.403275,-0.119288 -0.826952,-0.146339 -1.244547,-0.107532 z M 36.542969,91.0625 c -0.101171,1.597633 1.39585,3.090053 3.014932,2.77438 1.504837,-0.170236 2.404869,-1.758454 2.227255,-3.178286 0,-1.405729 0,-2.811459 0,-4.217188 -0.563424,0.0565 -0.117587,1.122257 -0.259765,1.6 -0.06726,1.268826 0.138824,2.566519 -0.109375,3.817969 -0.354802,1.516327 -2.346239,2.281101 -3.59375,1.318359 -1.046628,-0.702488 -1.1012,-2.066198 -1.025391,-3.197656 0,-1.179557 0,-2.359114 0,-3.538672 -0.554359,0.06361 -0.112408,1.123529 -0.253906,1.6 0,1.007031 0,2.014063 0,3.021094 z m 7.820312,2.650391 c 0.545231,-0.07079 0.10727,-1.124762 0.248047,-1.6 0.115553,-0.480672 -0.344814,-1.537262 0.5,-1.288672 1.214549,0.01857 2.715383,0.167747 3.509766,-0.972657 0.953478,-1.199179 0.06079,-3.065098 -1.378504,-3.329915 -0.946871,-0.168885 -1.921292,-0.03969 -2.879309,-0.08024 0,2.423828 0,4.847657 0,7.271485 z m 6.753907,0 c 1.300781,0 2.601562,0 3.902343,0 -0.0756,-0.53911 -1.125559,-0.103868 -1.6,-0.244141 -0.684765,0 -1.369531,0 -2.054297,0 0,-1.121094 0,-2.242188 0,-3.363281 1.050782,0 2.101563,0 3.152344,0 -0.07802,-0.536038 -1.125952,-0.102173 -1.6,-0.242188 -0.457362,-0.126752 -1.420847,0.252618 -1.552344,-0.2 0,-0.997786 0,-1.995573 0,-2.993359 1.218099,0 2.436198,0 3.654297,0 -0.09517,-0.51433 -1.128562,-0.09045 -1.6,-0.228516 -0.767448,0 -1.534896,0 -2.302343,0 0,2.423828 0,4.847657 0,7.271485 z m 6.324218,0 c 0.545231,-0.07079 0.10727,-1.124762 0.248047,-1.6 0.127968,-0.480236 -0.259956,-1.476362 0.2,-1.62461 0.549338,0.05209 1.210482,-0.108736 1.686852,0.08232 0.727289,1.048247 1.457135,2.094725 2.185414,3.142288 0.599228,-0.01585 -0.509398,-0.901938 -0.649396,-1.29446 -0.425978,-0.58619 -0.851478,-1.172727 -1.278339,-1.758275 0.998387,-0.220716 2.002038,-0.974166 1.955078,-2.091797 0.0059,-1.425267 -1.504169,-2.338515 -2.818359,-2.126953 -0.457941,0.153654 -1.560325,-0.336616 -1.534914,0.3 0.0019,2.323828 0.0037,4.647656 0.0056,6.971485 z m 26.654297,0 c 0.548281,-0.06839 0.108978,-1.124355 0.25,-1.6 0,-1.890495 0,-3.78099 0,-5.671485 -0.548281,0.06839 -0.108978,1.124355 -0.25,1.6 0,1.890495 0,3.78099 0,5.671485 z m 2.910156,0 c 1.321615,0 2.64323,0 3.964844,0 -0.0756,-0.53911 -1.12556,-0.103868 -1.6,-0.244141 -0.705599,0 -1.411198,0 -2.116797,0 0,-2.342448 0,-4.684896 0,-7.027344 -0.545231,0.07079 -0.10727,1.124761 -0.248047,1.6 0,1.890495 0,3.78099 0,5.671485 z m 6.066407,0 c 1.300781,0 2.601562,0 3.902343,0 -0.0756,-0.53911 -1.125559,-0.103868 -1.6,-0.244141 -0.684765,0 -1.369531,0 -2.054297,0 0,-1.121094 10e-7,-2.242188 0,-3.363281 1.050782,0 2.101563,0 3.152344,0 -0.07802,-0.536038 -1.125952,-0.102173 -1.6,-0.242188 -0.457362,-0.126752 -1.420847,0.252618 -1.552344,-0.2 0,-0.997786 0,-1.995573 0,-2.993359 1.218099,0 2.436198,0 3.654297,0 -0.09517,-0.51433 -1.128562,-0.09045 -1.6,-0.228516 -0.767448,0 -1.534895,0 -2.302343,0 0,2.423828 0,4.847657 0,7.271485 z m 9.419924,0 c 1.18525,-0.09337 2.44422,0.21598 3.57632,-0.219386 1.32404,-0.542861 1.52449,-2.73302 0.12876,-3.306005 -0.43979,-0.178774 0.56375,0.361046 0.56262,0.672218 0.69713,1.244941 -0.55534,2.775102 -1.89895,2.636376 -0.70821,0 -1.41641,0 -2.12461,0 0,-1.203125 0,-2.40625 0,-3.609375 0.65665,-0.0042 1.02293,0.02778 1.65664,-0.006 0.83427,0.09898 0.51548,-0.152194 -0.0727,-0.09561 -0.34457,0.127615 -0.17434,-0.460515 -0.73115,-0.224473 0.055,0.435868 -1.24788,0.375565 -0.85283,-0.298964 0,-0.869141 0,-1.738281 0,-2.607422 1.01629,0.04178 2.39202,-0.280836 2.99605,0.797106 0.27105,0.433895 0.28496,1.017045 0.0489,1.468519 0.86533,-0.940728 -0.0957,-2.423776 -1.24941,-2.459277 -0.6783,-0.04238 -1.36002,-0.0082 -2.03965,-0.01924 0,2.423828 0,4.847657 0,7.271485 z m 6.78125,0 c 0.54523,-0.07079 0.10727,-1.124762 0.24804,-1.6 0.12797,-0.480236 -0.25995,-1.476362 0.2,-1.62461 0.54934,0.05209 1.21049,-0.108736 1.68686,0.08232 0.72676,1.04816 1.45581,2.094739 2.18346,3.142288 0.60344,-0.01403 -0.50777,-0.901199 -0.64811,-1.293978 -0.42647,-0.586306 -0.85267,-1.172803 -1.27963,-1.758757 0.98821,-0.219588 1.9908,-0.96027 1.95313,-2.066406 0.0312,-1.436151 -1.49386,-2.366512 -2.81446,-2.152344 -0.45794,0.153654 -1.56032,-0.336616 -1.53491,0.3 0.002,2.323828 0.004,4.647656 0.006,6.971485 z m 10.43164,-7.15625 c 2.13336,-0.0649 3.93228,2.117009 3.45312,4.199218 -0.35044,2.068877 -2.77401,3.40854 -4.7094,2.593653 -1.9774,-0.686758 -2.89299,-3.289965 -1.7658,-5.057887 0.60973,-1.060136 1.79869,-1.743236 3.02208,-1.734984 z m -74.564455,0.123047 c 1.127103,-0.003 2.541747,-0.192453 3.273437,0.888671 0.848785,1.062253 0.07152,2.73016 -1.220466,2.948479 -0.847325,0.161119 -1.723556,0.03043 -2.582268,0.06715 0,-1.301432 0,-2.602864 0,-3.904296 0.176432,0 0.352865,-10e-7 0.529297,0 z m 13.074219,0 c 1.048336,-0.02602 2.402507,-0.14604 3.00642,0.925657 0.822595,1.196785 -0.286264,2.932249 -1.69392,2.857546 -0.613933,0 -1.227865,0 -1.841797,0 0,-1.261068 0,-2.522136 0,-3.783203 0.176432,-10e-7 0.352864,0 0.529297,0 z m 51.830076,0 c 1.05016,-0.02716 2.40409,-0.144306 3.00978,0.927933 0.84246,1.235246 -0.35472,3.001824 -1.79728,2.85527 -0.5806,0 -1.1612,0 -1.7418,0 1e-5,-1.261068 0,-2.522136 0,-3.783203 0.17644,0 0.35287,0 0.5293,0 z m -42.828123,7.033203 c 0.590816,0.01972 0.463973,-1.071506 0.916406,-1.265625 1.508333,0 3.016667,0 4.525,0 0.22377,0.340556 0.469138,1.487691 0.77456,1.174801 -1.02902,-2.233397 -2.05804,-4.466795 -3.08706,-6.700192 -1.042969,2.263672 -2.085937,4.527344 -3.128906,6.791016 z m 3.613281,-5.330079 c 0.599664,1.33396 1.198239,2.66841 1.798828,4.001954 -1.522135,0 -3.044271,0 -4.566406,0 0.761428,-1.691538 1.524305,-3.382422 2.285156,-5.074219 0.160808,0.357422 0.321615,0.714844 0.482422,1.072265 z" />
  </g>
</svg>
